<?xml version="1.0" encoding="UTF-8"?> <!-- Generator: Adobe Illustrator 23.0.4, SVG Export Plug-In . SVG Version: 6.00 Build 0) --> <svg xmlns="http://www.w3.org/2000/svg" xmlns:xlink="http://www.w3.org/1999/xlink" id="Layer_1" x="0px" y="0px" viewBox="0 0 50 50" style="enable-background:new 0 0 50 50;" xml:space="preserve"> <style type="text/css"> .st0{fill:#FFFFFF;} .st1{fill:#F47D2E;} </style> <rect class="st0" width="50" height="50"></rect> <path class="st1" d="M0,0v50h50V0H0z M23.18,25.99H5.7c0.78,8.52,8.25,15.23,17.31,15.23v3.97c-11.77,0-21.35-9.28-21.35-20.69 S11.24,3.81,23.01,3.81v3.97c-8.71,0-15.94,6.2-17.19,14.24h17.36V25.99z M27.17,45.19v-3.97c9.06,0,16.53-6.71,17.31-15.24H27.15 v-3.97h17.22c-1.25-8.05-8.49-14.24-17.19-14.24V3.81c11.77,0,21.35,9.28,21.35,20.69S38.95,45.19,27.17,45.19z"></path> </svg> 