<?xml version="1.0" encoding="UTF-8"?> <!-- Generator: Adobe Illustrator 23.0.4, SVG Export Plug-In . SVG Version: 6.00 Build 0) --> <svg xmlns="http://www.w3.org/2000/svg" xmlns:xlink="http://www.w3.org/1999/xlink" id="Layer_1" x="0px" y="0px" viewBox="0 0 280 180" style="enable-background:new 0 0 280 180;" xml:space="preserve"> <style type="text/css"> .st0{fill:#4D5858;} .st1{fill:#F47D30;} .st2{fill:none;} </style> <g> <path class="st0" d="M33.39,143.69c3.5,0,5.36-0.46,7.02-0.86l-3.24,6.25H2.5c1.12-1.27,1.98-2.49,2.92-5.59l6.44-21.34 c0.94-3.1,0.81-4.32,0.46-5.59h34.06l-0.66,6.25c-1.48-0.41-3.06-0.86-6.56-0.86H26.92l-2.3,7.62h10.7c3.44,0,5.3-0.46,7.02-0.86 l-2.15,7.11c-1.48-0.41-3.06-0.86-6.5-0.86h-10.7l-2.64,8.74H33.39z"></path> <path class="st0" d="M57.23,122.14h-0.12l-6.36,21.09c-1.1,3.66-1.12,4.32-0.29,5.84h-9.47c1.75-1.52,2.13-2.19,3.24-5.84 l6.29-20.83c1.1-3.66,1.12-4.32,0.29-5.84h21.09l7.98,26.53h0.18l6.24-20.68c1.1-3.66,1.12-4.32,0.29-5.84h9.47 c-1.75,1.52-2.13,2.19-3.24,5.84l-8.05,26.68H65.34L57.23,122.14z"></path> <path class="st0" d="M139.48,129.56c-2.32,2.19-2.7,2.85-3.38,5.08l-2.42,8.03c-1.21,4.01-1.16,4.68-0.33,6.4h-13.22l0.41-3h-0.12 c-1.24,1.88-2.13,3-6.38,3h-13.28c-6.39,0-9.19-2.54-7.08-9.55l4.05-13.42c2.12-7.01,6.45-9.55,12.84-9.55h28.78l-0.72,6.25 c-1.51-0.51-2.88-0.86-5.77-0.86h-15.93c-1.97,0-3.1,0.51-3.58,2.08l-5.3,17.58c-0.48,1.58,0.36,2.08,2.32,2.08h5.04 c1.97,0,3.1-0.51,3.58-2.08l2.01-6.66h-5.6c-1.11,0-1.88,0.3-2.71,0.61l1.81-6H139.48z"></path> <path class="st0" d="M149.75,140.33l-3.99,4.47c-0.55,0.61-0.94,1.27-1.14,1.93c-0.34,1.12-0.31,1.22,0.16,2.34h-11.13 c3.09-2.49,4.1-3.4,6.27-5.89l21.81-24.8l-1.17-1.83h17.77l5.56,28.05c0.35,1.68,1.11,3.25,2.09,4.47h-19.74 c1.11-1.22,1.29-1.42,1.5-2.13c0.23-0.76,0.34-1.73,0.18-2.44l-0.9-4.17H149.75z M166.07,134.95l-2.28-10.98l-9.34,10.98H166.07z"></path> <path class="st0" d="M236.25,129.56c-2.32,2.19-2.7,2.85-3.38,5.08l-2.42,8.03c-1.21,4.01-1.16,4.68-0.33,6.4H216.9l0.41-3h-0.12 c-1.24,1.88-2.13,3-6.38,3h-13.28c-6.39,0-9.19-2.54-7.08-9.55l4.05-13.42c2.12-7.01,6.45-9.55,12.84-9.55h28.78l-0.72,6.25 c-1.51-0.51-2.88-0.86-5.77-0.86h-15.93c-1.97,0-3.1,0.51-3.58,2.08l-5.3,17.58c-0.48,1.58,0.35,2.08,2.32,2.08h5.04 c1.97,0,3.11-0.51,3.58-2.08l2.01-6.66h-5.6c-1.11,0-1.88,0.3-2.71,0.61l1.81-6H236.25z"></path> <path class="st0" d="M264.52,143.69c3.5,0,5.36-0.46,7.02-0.86l-3.24,6.25h-34.68c1.12-1.27,1.98-2.49,2.92-5.59l6.44-21.34 c0.94-3.1,0.81-4.32,0.46-5.59h34.06l-0.66,6.25c-1.48-0.41-3.06-0.86-6.56-0.86h-12.24l-2.3,7.62h10.7c3.44,0,5.3-0.46,7.02-0.86 l-2.15,7.11c-1.48-0.41-3.06-0.86-6.5-0.86h-10.7l-2.64,8.74H264.52z"></path> </g> <g> <path class="st1" d="M55.37,174.49c2.03,0,3.1-0.26,4.06-0.5l-1.87,3.61H37.51c0.65-0.73,1.14-1.44,1.69-3.23l3.72-12.34 c0.54-1.79,0.47-2.5,0.26-3.23h19.69l-0.38,3.61c-0.85-0.23-1.77-0.5-3.79-0.5h-7.07l-1.33,4.41h6.18c1.99,0,3.07-0.26,4.06-0.5 l-1.24,4.11c-0.85-0.23-1.77-0.5-3.76-0.5h-6.18l-1.52,5.05H55.37z"></path> <path class="st1" d="M78.11,174.49c0.99,0,2.81-0.12,3.92-0.62l-1.87,3.73H60.54c0.65-0.73,1.15-1.44,1.69-3.23l3.72-12.34 c0.54-1.79,0.47-2.5,0.26-3.23h10.09c-0.65,0.73-1.15,1.44-1.69,3.23l-3.76,12.45H78.11z"></path> <path class="st1" d="M100.04,174.49c2.03,0,3.1-0.26,4.06-0.5l-1.87,3.61H82.18c0.65-0.73,1.15-1.44,1.69-3.23l3.72-12.34 c0.54-1.79,0.47-2.5,0.26-3.23h19.69l-0.38,3.61c-0.85-0.23-1.77-0.5-3.79-0.5H96.3l-1.33,4.41h6.18c1.99,0,3.07-0.26,4.06-0.5 l-1.24,4.11c-0.85-0.23-1.77-0.5-3.76-0.5h-6.18l-1.52,5.05H100.04z"></path> <path class="st1" d="M129.88,162.42c-0.87-0.29-1.66-0.5-3.33-0.5h-6.22c-1.14,0-1.79,0.29-2.07,1.2l-3.07,10.16 c-0.27,0.91,0.21,1.2,1.34,1.2h4.9c3.48,0,4.11-0.21,5.44-0.7l-1.9,3.82h-14c-3.7,0-5.31-1.47-4.09-5.52l2.34-7.75 c1.22-4.05,3.73-5.52,7.42-5.52h13.65L129.88,162.42z"></path> <path class="st1" d="M154.32,158.8l-0.46,3.88c-0.81-0.5-1.4-0.76-3-0.76h-3.95l-3.76,12.45c-0.54,1.79-0.47,2.5-0.26,3.23h-10.09 c0.65-0.73,1.15-1.44,1.69-3.23l3.76-12.45h-3.94c-1.6,0-2.35,0.26-3.46,0.76l1.88-3.88H154.32z"></path> <path class="st1" d="M162.69,169.44l-1.49,4.93c-0.54,1.79-0.47,2.5-0.26,3.23h-10.09c0.65-0.73,1.15-1.44,1.69-3.23l3.72-12.34 c0.54-1.79,0.47-2.5,0.05-3.23H175c3.98,0,5.6,1,4.65,4.14l-1.05,3.47c-0.83,2.76-2.51,2.91-4.4,3.03l1.5,5.29 c0.35,1.2,0.48,2.17,1.02,2.88h-9.7l-1.66-8.17H162.69z M163.63,166.32h4.9c1.1,0,1.47-0.15,1.74-1.06l0.69-2.29 c0.28-0.91,0-1.06-1.1-1.06h-4.9L163.63,166.32z"></path> <path class="st1" d="M179.42,177.6c0.65-0.73,1.15-1.44,1.69-3.23l3.72-12.34c0.54-1.79,0.47-2.5,0.26-3.23h10.09 c-0.65,0.73-1.15,1.44-1.69,3.23l-3.72,12.34c-0.54,1.79-0.47,2.5-0.26,3.23H179.42z"></path> <path class="st1" d="M217.91,162.42c-0.87-0.29-1.66-0.5-3.33-0.5h-6.22c-1.14,0-1.79,0.29-2.07,1.2l-3.07,10.16 c-0.27,0.91,0.21,1.2,1.34,1.2h4.9c3.48,0,4.11-0.21,5.44-0.7l-1.9,3.82h-14c-3.7,0-5.31-1.47-4.09-5.52l2.34-7.75 c1.22-4.05,3.73-5.52,7.42-5.52h13.65L217.91,162.42z"></path> <path class="st1" d="M242.11,162.53c-0.95-0.38-1.66-0.62-3.33-0.62h-8.07c-1.35,0-1.71,0.15-1.92,0.82l-0.32,1.06 c-0.21,0.7,0.07,0.82,1.42,0.82h6.15c3.7,0,5.37,1.06,4.54,3.79l-1.38,4.58c-0.89,2.97-2.67,4.61-6.83,4.61h-15.64l0.41-3.82 c0.75,0.35,1.49,0.7,3.2,0.7h8.39c1.35,0,1.67-0.12,1.88-0.82l0.39-1.29c0.2-0.68-0.04-0.82-1.39-0.82h-7.07 c-3.45,0-4.51-0.94-3.57-4.08l1.27-4.2c0.89-2.94,3.09-4.46,6.14-4.46h16.1L242.11,162.53z"></path> </g> <path class="st1" d="M135.69,52.26H96.4c1.77,19.17,18.54,34.25,38.92,34.25v8.92c-26.47,0-48-20.87-48-46.51 c0-25.65,21.53-46.52,48-46.52v8.92c-19.58,0-35.84,13.92-38.65,32.02h39.02V52.26z M144.68,95.43v-8.92 c20.38,0,37.16-15.08,38.92-34.25h-38.97v-8.92h38.7c-2.81-18.09-19.07-32.02-38.65-32.02V2.4c26.47,0,48,20.87,48,46.52 C192.68,74.57,171.15,95.43,144.68,95.43z"></path> <rect class="st2" width="280" height="180"></rect> </svg> 